<svg t="1737701909514" class="icon" viewBox="0 0 1024 1024" version="1.1" xmlns="http://www.w3.org/2000/svg" p-id="4261" width="200" height="200"><path d="M601.884444 146.773333v731.591111c0 11.662222-4.266667 21.902222-12.8 30.151112s-18.773333 12.8-30.151111 12.8c-11.662222 0-21.902222-4.266667-30.151111-12.8l-224.142222-223.857778h-176.355556c-11.662222 0-21.902222-4.266667-30.151111-12.8-8.533333-8.248889-12.8-18.204444-12.8-29.866667v-258.275555c0-11.662222 4.266667-21.902222 12.8-30.151112 8.533333-8.533333 18.488889-12.8 30.151111-12.8h176.355556l223.857778-223.857777c8.533333-8.533333 18.488889-12.8 30.151111-12.8 11.662222 0 21.902222 4.266667 30.151111 12.8 8.817778 8.248889 13.084444 18.204444 13.084444 29.866666z m0 0M988.444444 220.444444h-256c-15.644444 0-28.444444-12.8-28.444444-28.444444s12.8-28.444444 28.444444-28.444444h256c15.644444 0 28.444444 12.8 28.444445 28.444444s-12.8 28.444444-28.444445 28.444444z" p-id="4262"></path><path d="M832 320v-256c0-15.644444 12.8-28.444444 28.444444-28.444444s28.444444 12.8 28.444445 28.444444v256c0 15.644444-12.8 28.444444-28.444445 28.444444s-28.444444-12.8-28.444444-28.444444z" p-id="4263"></path></svg>