<svg width="30" height="30" viewBox="0 0 30 30" fill="none" xmlns="http://www.w3.org/2000/svg">
<path fill-rule="evenodd" clip-rule="evenodd" d="M21.1351 2.37286L22.0007 2.87359C26.1827 5.29275 29 9.81679 29 15C29 20.1833 26.1827 24.7073 22.0007 27.1265L21.1351 27.6272L20.1336 25.896L20.9992 25.3953C24.5887 23.3189 27 19.4405 27 15C27 10.5596 24.5887 6.68117 20.9992 4.6048L20.1336 4.10408L21.1351 2.37286ZM14.6448 3.38893C15.3517 2.86327 16.3556 3.36779 16.3556 4.24869V25.7514C16.3556 26.6323 15.3517 27.1368 14.6448 26.6111L7.9957 21.6665C7.81087 21.529 7.58667 21.4548 7.35634 21.4548H2.2516C1.65987 21.4548 1.18018 20.9751 1.18018 20.3834V9.63411C1.18018 9.04371 1.65779 8.56457 2.24819 8.56269L7.35824 8.54639C7.5874 8.54566 7.81029 8.47147 7.99418 8.33472L14.6448 3.38893ZM20.5553 8.1684L19.7237 7.61304L18.613 9.27626L19.4446 9.83162C20.9368 10.8281 22 12.7411 22 15C22 17.2589 20.9368 19.1719 19.4446 20.1684L18.613 20.7238L19.7237 22.387L20.5553 21.8316C22.6499 20.4328 24 17.8688 24 15C24 12.1312 22.6499 9.56717 20.5553 8.1684Z" fill="#2E333D"/>
</svg>
