<svg width="30" height="30" viewBox="0 0 30 30" fill="none" xmlns="http://www.w3.org/2000/svg">
<path fill-rule="evenodd" clip-rule="evenodd" d="M10.3602 22.8416L14.5946 26.4025C15.2916 26.9886 16.3556 26.4931 16.3556 25.5825V15.619L10.3602 22.8416ZM23.7162 6.75187L25.0013 5.20364C27.4741 7.72791 29 11.1855 29 15C29 20.1833 26.1827 24.7073 22.0007 27.1265L21.1351 27.6272L20.1337 25.896L20.9993 25.3953C24.5887 23.3189 27 19.4405 27 15C27 11.806 25.7524 8.90282 23.7162 6.75187ZM20.4377 10.7014L21.7262 9.14917C23.1393 10.6132 24 12.7094 24 15C24 17.8689 22.6499 20.4329 20.5554 21.8316L19.7237 22.387L18.613 20.7238L19.4446 20.1684C20.9369 19.1719 22 17.2589 22 15C22 13.2842 21.3866 11.768 20.4377 10.7014ZM16.3556 6.48288L3.92756 21.4548H2.25164C1.6599 21.4548 1.18021 20.9751 1.18021 20.3834V9.63459C1.18021 9.04401 1.6581 8.56479 2.24867 8.56316L8.32215 8.54636C8.57342 8.54567 8.81646 8.45668 9.00877 8.29496L14.5946 3.59761C15.2916 3.01151 16.3556 3.50699 16.3556 4.41763V6.48288Z" fill="white"/>
<path d="M4.56372 25.2683L22.1407 4.08365" stroke="white" stroke-width="2" stroke-linecap="square" stroke-linejoin="round"/>
</svg>
