<svg width="20" height="19" viewBox="0 0 20 19" fill="none" xmlns="http://www.w3.org/2000/svg">
<path fill-rule="evenodd" clip-rule="evenodd" d="M10.3017 2.0893C9.932 2.03053 9.55291 2 9.16667 2C5.20759 2 2 5.2074 2 9.16161C2 9.31826 2.00503 9.47373 2.01495 9.62788L0.0367294 9.98735C0.0124179 9.71535 0 9.43993 0 9.16161C0 4.10179 4.10406 -2.21291e-07 9.16667 0C9.67509 2.22353e-08 10.1738 0.0413685 10.6597 0.120921L10.3017 2.0893ZM10.0633 3.41167C9.77107 3.36663 9.47168 3.34325 9.16684 3.34325C5.94517 3.34325 3.3335 5.95349 3.3335 9.17337C3.3335 9.24912 3.33495 9.32453 3.33781 9.39959L5.33591 9.0365C5.40803 6.98554 7.0946 5.34325 9.16684 5.34325C9.34953 5.34325 9.52923 5.35602 9.70509 5.38071L10.0633 3.41167ZM8.18113 7.21788L18.6262 7.21251C18.6964 7.21257 18.7657 7.22839 18.829 7.25879C18.8922 7.28919 18.9478 7.3334 18.9917 7.38815C19.0356 7.44291 19.0666 7.50681 19.0824 7.57515C19.0983 7.64348 19.0986 7.71451 19.0833 7.78297L16.7957 17.9689C16.7764 18.0549 16.7331 18.1337 16.6709 18.1962C16.6087 18.2587 16.5301 18.3024 16.4442 18.3223C16.3583 18.3422 16.2685 18.3374 16.1851 18.3086C16.1018 18.2797 16.0282 18.228 15.973 18.1592L13.6523 15.263C9.6108 18.4979 3.71105 17.8458 0.474417 13.8065C0.336028 13.6338 0.522631 13.3975 0.732698 13.4673C1.94454 13.8703 3.23549 13.9941 4.50805 13.825C6.03249 13.6225 7.47257 13.0075 8.67264 12.0463L10.1362 10.8749L7.81549 7.9787C7.76045 7.90981 7.72598 7.8268 7.71603 7.73921C7.70608 7.65162 7.72106 7.56299 7.75925 7.48353C7.79744 7.40407 7.85729 7.33698 7.93192 7.28999C8.00655 7.243 8.09293 7.218 8.18113 7.21788Z" fill="white" style="fill:white;fill:white;fill-opacity:1;"/>
</svg>
