<svg width="20" height="20" viewBox="0 0 20 20" fill="none" xmlns="http://www.w3.org/2000/svg">
<g opacity="0.8">
<path fill-rule="evenodd" clip-rule="evenodd" d="M5.83325 4.99998C5.83325 2.69879 7.69873 0.833313 9.99992 0.833313C11.6098 0.833313 13.0064 1.74632 13.7003 3.08278L6.19703 12.1219C5.96328 11.6014 5.83325 11.0242 5.83325 10.4166V4.99998ZM5.06083 13.4906C4.50464 12.5988 4.18328 11.5453 4.18328 10.4169V9.16687H2.48328V10.4169C2.48328 12.0756 3.02058 13.6089 3.93064 14.8521L5.06083 13.4906ZM7.07212 17.342L8.22197 15.9568C8.78239 16.1365 9.37984 16.2335 9.99994 16.2335C13.2124 16.2335 15.8166 13.6293 15.8166 10.4169V9.16687H17.5166V10.4169C17.5166 14.2865 14.5925 17.4732 10.8333 17.8879V20.0001H9.16663V17.8879C8.43129 17.8068 7.72791 17.6196 7.07212 17.342ZM9.39791 14.5401L14.1666 8.79537V10.4166C14.1666 12.7178 12.3011 14.5833 9.99992 14.5833C9.79548 14.5833 9.59447 14.5686 9.39791 14.5401Z" fill="#D5E0F2"/>
<path d="M5.04102 16.6536L15.3253 4.27002" stroke="#D5E0F2" stroke-width="1.7" stroke-linecap="round" stroke-linejoin="round"/>
</g>
</svg>
